<svg width="188" height="46" viewBox="0 0 188 46" fill="none" xmlns="http://www.w3.org/2000/svg">
    <path d="M24.9928 8.20787C22.4364 8.20787 20.0818 9.25063 18.3999 10.9325V0.504883H15.6416V30.2404H18.3999V17.5927C18.3999 13.9599 21.36 10.9998 24.9928 10.9998C28.6257 10.9998 31.5858 13.9599 31.5858 17.5927V30.2404H34.3441V17.5927C34.3441 12.4126 30.1394 8.20787 24.9928 8.20787Z"
          fill="white"/>
    <path d="M49.4469 28.2555C44.8386 28.2555 41.4748 24.6563 41.3739 19.7452H60.6818C60.6145 12.6477 55.6698 8.24121 49.5814 8.24121C42.8876 8.24121 38.5483 13.7241 38.5483 19.577C38.5483 25.3291 42.6185 30.7783 49.7496 30.7783C54.4252 30.7783 57.789 28.6255 59.9754 24.3536L57.6881 23.1426C56.0735 25.6991 53.9207 28.2555 49.4469 28.2555ZM49.6151 10.8649C53.2479 10.8649 56.3426 12.7486 57.5535 16.9533H41.7775C43.0558 12.8159 45.8813 10.8649 49.6151 10.8649Z"
          fill="white"/>
    <path d="M7.16479 8.44333V0.504883H4.40651V8.44333H0V11.2016H0.605475H4.40651V30.2404H7.16479V11.2016H11.5377V8.77971V8.44333H7.16479Z"
          fill="white"/>
    <path d="M70.4367 30.2746H65.0547V0.539062H70.4367V11.1685C72.3877 9.21754 74.6077 8.27569 77.1978 8.27569C82.748 8.27569 87.3227 12.884 87.3227 19.5779C87.3227 26.1708 82.5126 30.8465 77.0633 30.8465C74.3723 30.8465 72.3877 29.871 70.4367 28.0209V30.2746ZM70.2012 19.477C70.2012 23.3453 72.7913 25.9017 76.0878 25.9017C79.4515 25.9017 81.9071 23.2107 81.9071 19.5106C81.9071 16.0123 79.6534 13.1531 76.0878 13.1531C72.6568 13.1868 70.2012 15.7096 70.2012 19.477Z"
          fill="white"/>
    <path d="M95.1268 11.505C96.136 9.28495 97.8851 8.24219 99.6343 8.24219C100.778 8.24219 101.451 8.57856 101.989 8.81402L100.341 13.4224C99.937 13.2205 99.3315 12.9851 98.7597 12.9851C97.2124 12.9851 96.0014 14.7679 95.9005 17.9298C95.8669 19.1071 95.8669 20.419 95.8669 21.5963V30.2748H90.4849V8.81402H95.1268V11.505Z"
          fill="white"/>
    <path d="M111.205 3.53245C111.205 5.41615 109.658 6.96348 107.774 6.96348C105.79 6.96348 104.343 5.21433 104.343 3.26335C104.343 1.41329 105.924 0.000516262 107.774 0.000516262C109.725 -0.0331212 111.205 1.58148 111.205 3.53245Z"
          fill="white"/>
    <path d="M110.499 8.81348H105.117V30.2742H110.499V8.81348Z" fill="white"/>
    <path d="M131.22 27.9873C129.336 29.8373 127.318 30.8128 124.593 30.8128C119.144 30.8128 114.367 26.1372 114.367 19.5443C114.367 12.8504 118.875 8.24205 124.458 8.24205C127.049 8.24205 129.269 9.21754 131.22 11.1349V0.539062H136.602V30.2746H131.22V27.9873ZM119.783 19.5106C119.783 23.1771 122.205 25.9017 125.568 25.9017C128.865 25.9017 131.455 23.4126 131.455 19.477C131.455 15.7096 128.966 13.1868 125.568 13.1868C122.003 13.1868 119.783 16.0123 119.783 19.5106Z"
          fill="white"/>
    <path d="M186.553 26.1033C184.266 29.3661 181.205 30.8462 176.697 30.8462C169.869 30.8462 165.462 25.8342 165.462 19.544C165.462 13.691 169.701 8.27539 176.596 8.27539C183.391 8.27539 188 13.1192 188 19.914C188 20.3849 187.966 20.654 187.966 21.1249H170.676C171.214 24.3205 173.636 26.1033 176.697 26.1033C178.985 26.1033 180.532 25.4642 182.046 24.0177L186.553 26.1033ZM182.584 16.853C181.844 14.3638 179.557 12.8165 176.697 12.8165C174.04 12.8165 171.954 14.162 170.912 16.853H182.584Z"
          fill="white"/>
    <path d="M161.863 8.81359H156.481V11.1682C154.463 9.28452 152.344 8.27539 149.687 8.27539C144.237 8.27539 139.663 12.6483 139.663 19.2749C139.663 25.6996 144.17 30.308 149.956 30.308C152.748 30.308 154.699 29.3661 156.448 27.6506V30.6107C156.28 36.1609 151.739 40.601 146.188 40.601C142.118 40.601 138.586 38.2128 136.938 34.7817H131.22C133.137 41.2401 139.125 45.983 146.222 45.983C154.833 45.983 161.863 38.9528 161.863 30.3416V8.81359ZM150.999 25.3296C147.635 25.3296 145.112 22.8404 145.112 19.2749C145.112 15.9784 147.366 13.1865 150.931 13.1865C154.497 13.1865 156.751 15.8438 156.751 19.3085C156.751 22.9413 154.295 25.3296 150.999 25.3296Z"
          fill="white"/>
</svg>
